<svg id="Layer_2" data-name="Layer 2" xmlns="http://www.w3.org/2000/svg" viewBox="0 0 249 249"><defs><style>.cls-1{fill:#ed1c24;}</style></defs><title>Balance Transfer</title><g id="_Group_" data-name="&lt;Group&gt;"><path id="_Compound_Path_" data-name="&lt;Compound Path&gt;" class="cls-1" d="M125,7A118,118,0,1,1,7,125,118.1,118.1,0,0,1,125,7M125,.5A124.5,124.5,0,1,0,249.5,125,124.5,124.5,0,0,0,125,.5Z" transform="translate(-0.5 -0.5)"/><g id="_Group_2" data-name="&lt;Group&gt;"><g id="_Group_3" data-name="&lt;Group&gt;"><g id="_Group_4" data-name="&lt;Group&gt;"><path id="_Compound_Path_2" data-name="&lt;Compound Path&gt;" class="cls-1" d="M72.75,133l-4.92,0a1.18,1.18,0,0,1-.92-.42l-9.2-10.9-2.25,2.14v8A1.19,1.19,0,0,1,54.27,133H52.19A1.19,1.19,0,0,1,51,131.81V107.94a1.19,1.19,0,0,1,1.19-1.2h2.08a1.19,1.19,0,0,1,1.19,1.2v6.93a1.19,1.19,0,0,0,2,.84L66,107.1a1.2,1.2,0,0,1,.85-.36H72.3l-11,11.08a1.19,1.19,0,0,0-.06,1.61Z" transform="translate(-0.5 -0.5)"/><path id="_Compound_Path_3" data-name="&lt;Compound Path&gt;" class="cls-1" d="M82.47,106.74a14.85,14.85,0,0,1,5.38,1,12.81,12.81,0,0,1,4.31,2.7A12.64,12.64,0,0,1,95,114.55a13.88,13.88,0,0,1,0,10.59,12.62,12.62,0,0,1-2.87,4.17A13,13,0,0,1,87.85,132a14.65,14.65,0,0,1-5.38,1H75.83a1.91,1.91,0,0,1-1.91-1.91V108.65a1.91,1.91,0,0,1,1.91-1.91Zm0,21.8a10.06,10.06,0,0,0,3.58-.64A9,9,0,0,0,89,126.12a8.2,8.2,0,0,0,1.93-2.74,9.35,9.35,0,0,0,0-7A7.93,7.93,0,0,0,89,113.61a8.88,8.88,0,0,0-2.91-1.74,10.05,10.05,0,0,0-3.58-.62H78.38v17.29Z" transform="translate(-0.5 -0.5)"/></g></g><g id="_Group_5" data-name="&lt;Group&gt;"><g id="_Group_6" data-name="&lt;Group&gt;"><path id="_Compound_Path_4" data-name="&lt;Compound Path&gt;" class="cls-1" d="M175.67,133l-4.92,0a1.18,1.18,0,0,1-.92-.42l-9.2-10.9-2.25,2.14v8a1.19,1.19,0,0,1-1.19,1.19h-2.08a1.19,1.19,0,0,1-1.19-1.19V107.94a1.19,1.19,0,0,1,1.19-1.2h2.08a1.19,1.19,0,0,1,1.19,1.2v6.93a1.19,1.19,0,0,0,2,.84l8.52-8.61a1.2,1.2,0,0,1,.85-.36h5.43l-11,11.08a1.19,1.19,0,0,0-.06,1.61Z" transform="translate(-0.5 -0.5)"/><path id="_Compound_Path_5" data-name="&lt;Compound Path&gt;" class="cls-1" d="M185.39,106.74a14.85,14.85,0,0,1,5.38,1,12.81,12.81,0,0,1,4.31,2.7,12.64,12.64,0,0,1,2.87,4.15,13.88,13.88,0,0,1,0,10.59,12.62,12.62,0,0,1-2.87,4.17,13,13,0,0,1-4.31,2.72,14.65,14.65,0,0,1-5.38,1h-6.64a1.91,1.91,0,0,1-1.91-1.91V108.65a1.91,1.91,0,0,1,1.91-1.91Zm0,21.8a10.06,10.06,0,0,0,3.58-.64,9,9,0,0,0,2.91-1.78,8.2,8.2,0,0,0,1.93-2.74,9.35,9.35,0,0,0,0-7,7.93,7.93,0,0,0-1.93-2.72,8.88,8.88,0,0,0-2.91-1.74,10.05,10.05,0,0,0-3.58-.62H181.3v17.29Z" transform="translate(-0.5 -0.5)"/></g></g><path id="_Compound_Path_6" data-name="&lt;Compound Path&gt;" class="cls-1" d="M99.75,61.05H47.33a8.51,8.51,0,0,0-8.51,8.51V180.44A8.51,8.51,0,0,0,47.33,189H99.75a8.51,8.51,0,0,0,8.51-8.51V69.56A8.51,8.51,0,0,0,99.75,61.05ZM63,66.75H84A1.14,1.14,0,1,1,84,69H63a1.14,1.14,0,1,1,0-2.27Zm10.5,118.47a6.77,6.77,0,1,1,6.77-6.77A6.78,6.78,0,0,1,73.54,185.22Zm29.16-16H44.38V75.68H102.7Z" transform="translate(-0.5 -0.5)"/><path id="_Compound_Path_7" data-name="&lt;Compound Path&gt;" class="cls-1" d="M202.67,61.05H150.25a8.51,8.51,0,0,0-8.51,8.51V180.44a8.51,8.51,0,0,0,8.51,8.51h52.42a8.51,8.51,0,0,0,8.51-8.51V69.56A8.51,8.51,0,0,0,202.67,61.05ZM166,66.75h21A1.14,1.14,0,1,1,187,69H166a1.14,1.14,0,1,1,0-2.27Zm10.5,118.47a6.77,6.77,0,1,1,6.77-6.77A6.78,6.78,0,0,1,176.46,185.22Zm29.16-16H147.3V75.68h58.32Z" transform="translate(-0.5 -0.5)"/><path id="_Path_" data-name="&lt;Path&gt;" class="cls-1" d="M104.88,122.3v5.4h15.41l-2.52,2.55a2.76,2.76,0,0,0-.34,3.4,2.69,2.69,0,0,0,3.65.81,5.57,5.57,0,0,0,.92-.83l1.36-1.38L127,128.6c.61-.62,1.3-1.21,1.85-1.89a2.73,2.73,0,0,0,.23-3.09,4.68,4.68,0,0,0-.8-.92l-3.11-3.15L122,116.36a5.44,5.44,0,0,0-.91-.82,2.67,2.67,0,0,0-3.4.5,2.73,2.73,0,0,0-.54,2.67,3.56,3.56,0,0,0,1,1.38c.73.73,1.45,1.47,2.18,2.21H104.88Z" transform="translate(-0.5 -0.5)"/></g></g></svg>