<?xml version="1.0" encoding="utf-8"?>
<!-- Generator: Adobe Illustrator 19.0.0, SVG Export Plug-In . SVG Version: 6.00 Build 0)  -->
<svg version="1.1" id="Layer_1" xmlns="http://www.w3.org/2000/svg" xmlns:xlink="http://www.w3.org/1999/xlink" x="0px" y="0px"
	 width="81px" height="81px" viewBox="-265 356 81 81" style="enable-background:new -265 356 81 81;" xml:space="preserve">
<style type="text/css">
	.st0{fill:#ED1C24;}
</style>
<g id="XMLID_7_">
	<g id="XMLID_8_">
		<g id="XMLID_10_">
			<path id="XMLID_12_" class="st0" d="M-237.5,404.1V400c0-1.3-1.1-2.4-2.4-2.4h-7.6c-1.3,0-2.4,1.1-2.4,2.4v4.2
				c0,1.3,1.1,2.4,2.4,2.4h7.6C-238.5,406.5-237.5,405.5-237.5,404.1z"/>
			<path id="XMLID_11_" class="st0" d="M-206.7,393.1c1.1,0,2,0.9,2,2v24.1c0,1.1-0.9,2-2,2h-43.2c-1.1,0-2-0.9-2-2v-24.1
				c0-1.1,0.9-2,2-2H-206.7 M-206.7,390.1h-43.2c-2.8,0-5,2.2-5,5v24.1c0,2.8,2.2,5,5,5h43.2c2.8,0,5-2.2,5-5v-24.1
				C-201.7,392.4-203.9,390.1-206.7,390.1L-206.7,390.1z"/>
		</g>
		<path id="XMLID_9_" class="st0" d="M-194.4,393.4l-4.6-10.2l-4.2-9.3l-1.1-2.6c-1.1-2.5-4.1-3.6-6.6-2.5l-39.4,17.7
			c-1.2,0.6-2.1,1.5-2.6,2.7c0.6-0.3,1.3-0.4,2-0.4h2.9l38.3-17.2c1-0.5,2.2,0,2.6,1l1.2,2.6l-30.4,13.7h24.8l9.8-4.4l4.6,10.2
			c0.4,1,0,2.2-1,2.6l-2.3,1v3.3l3.6-1.6C-194.4,398.9-193.3,396-194.4,393.4z"/>
	</g>
</g>
</svg>
