<svg id="Layer_6" data-name="Layer 6" xmlns="http://www.w3.org/2000/svg" viewBox="0 0 490 490"><defs><style>.cls-1{fill:#ed1c24;}.cls-2{fill:#ff151f;}</style></defs><title>06</title><g id="_Group_" data-name="&lt;Group&gt;"><g id="_Group_2" data-name="&lt;Group&gt;"><path id="_Compound_Path_" data-name="&lt;Compound Path&gt;" class="cls-1" d="M250,17.87C378,17.87,482.13,122,482.13,250S378,482.13,250,482.13,17.87,378,17.87,250,122,17.87,250,17.87M250,5C114.69,5,5,114.69,5,250S114.69,495,250,495,495,385.31,495,250,385.31,5,250,5Z" transform="translate(-5 -5)"/></g><g id="_Group_3" data-name="&lt;Group&gt;"><g id="_Group_4" data-name="&lt;Group&gt;"><g id="_Group_5" data-name="&lt;Group&gt;"><path id="_Compound_Path_2" data-name="&lt;Compound Path&gt;" class="cls-2" d="M376.5,197.62a136.71,136.71,0,0,0-17.87-30.88A5.58,5.58,0,0,0,352,165a199.73,199.73,0,0,1-24.47,8.67,5.54,5.54,0,0,0-3.86,6.69c1.39,5.55,2.62,11.33,3.67,17.24h-20c-.87-4.56-1.86-9-3-13.29a5.55,5.55,0,0,0-5.38-4.19,5.47,5.47,0,0,0-.9.08,294.77,294.77,0,0,1-30.5,3.33,5.55,5.55,0,0,0-5.23,5.54v8.53H242.53v-8.28a5.54,5.54,0,0,0-5.32-5.55,298.88,298.88,0,0,1-35.34-3.57,5.47,5.47,0,0,0-.9-.08,5.55,5.55,0,0,0-5.38,4.19c-1.09,4.27-2.08,8.73-3,13.29h-20c1.05-5.91,2.28-11.69,3.67-17.24a5.54,5.54,0,0,0-3.87-6.69A201.85,201.85,0,0,1,148,165a5.39,5.39,0,0,0-2.2-.46,5.6,5.6,0,0,0-4.41,2.17,137.15,137.15,0,0,0-17.87,30.88H98.1a159.75,159.75,0,0,1,21-40.66A161.61,161.61,0,0,1,154,121.24a160.19,160.19,0,0,1,199.63,6.06,160.85,160.85,0,0,1,48.29,70.32ZM237,116.38a5.53,5.53,0,0,0-2.95.85,47.49,47.49,0,0,0-5.61,4.19c-7.56,6.56-14.46,16.16-20.49,28.52-.62,1.26-1.23,2.57-1.83,3.9a5.55,5.55,0,0,0,4.29,7.8c8.56,1.2,17.43,2,26.34,2.42H237a5.56,5.56,0,0,0,5.56-5.56V121.94A5.56,5.56,0,0,0,237,116.38Zm31,3.68a5.57,5.57,0,0,0-5.55,5.56v32.62a5.56,5.56,0,0,0,5.55,5.56h.35c7.18-.45,14.36-1.17,21.32-2.15a5.55,5.55,0,0,0,4.29-7.8c-.59-1.31-1.21-2.62-1.83-3.9-6-12.36-12.93-22-20.49-28.52A5.62,5.62,0,0,0,267.94,120.06ZM187.42,129a5.59,5.59,0,0,0-2.65.68A137.12,137.12,0,0,0,166,141.92a5.55,5.55,0,0,0,1.59,9.63c3.64,1.27,7.43,2.46,11.24,3.54a5.57,5.57,0,0,0,6.67-3.26c1.48-3.63,3.06-7.18,4.69-10.53.69-1.4,1.4-2.81,2.13-4.18a5.51,5.51,0,0,0-.16-5.46A5.6,5.6,0,0,0,187.42,129Zm125.14,0a5.6,5.6,0,0,0-4.76,2.71,5.49,5.49,0,0,0-.15,5.45c.73,1.38,1.44,2.79,2.13,4.19,1.63,3.35,3.21,6.9,4.69,10.54a5.55,5.55,0,0,0,5.16,3.46,5.43,5.43,0,0,0,1.5-.21c3.82-1.08,7.61-2.27,11.26-3.54a5.56,5.56,0,0,0,1.59-9.63,138.86,138.86,0,0,0-18.76-12.29A5.66,5.66,0,0,0,312.56,129Z" transform="translate(-5 -5)"/></g><g id="_Group_6" data-name="&lt;Group&gt;"><path id="_Compound_Path_3" data-name="&lt;Compound Path&gt;" class="cls-2" d="M250,410.69a162.69,162.69,0,0,1-19-1.12l-1.25-.16a161.19,161.19,0,0,1-133-111.09h25.15a136.9,136.9,0,0,0,19.48,34.95A5.54,5.54,0,0,0,148,335a201.41,201.41,0,0,1,24.47-8.67,5.52,5.52,0,0,0,3.85-6.68c-1.71-6.83-3.17-14-4.36-21.31h19.95c1,6,2.29,11.8,3.7,17.37a5.54,5.54,0,0,0,5.37,4.17,5.46,5.46,0,0,0,.9-.07,296.91,296.91,0,0,1,35.36-3.57,5.53,5.53,0,0,0,5.31-5.54V298.32h19.86v12.6a5.55,5.55,0,0,0,5.22,5.54,295.46,295.46,0,0,1,30.52,3.33,5.46,5.46,0,0,0,.9.07,5.54,5.54,0,0,0,5.37-4.17c1.41-5.57,2.66-11.4,3.7-17.37h19.95c-1.19,7.33-2.65,14.48-4.36,21.32a5.52,5.52,0,0,0,3.85,6.67A203.29,203.29,0,0,1,352,335a5.53,5.53,0,0,0,6.6-1.71,136.64,136.64,0,0,0,19.49-34.95h25.14A161.54,161.54,0,0,1,312.47,398,159.35,159.35,0,0,1,250,410.69Zm-13-74.75h-.25c-8.92.4-17.79,1.21-26.37,2.42a5.56,5.56,0,0,0-4.28,7.78c.6,1.32,1.22,2.64,1.84,3.92,6,12.36,12.93,21.95,20.49,28.51a46.8,46.8,0,0,0,5.63,4.21,5.54,5.54,0,0,0,8.49-4.71V341.49A5.56,5.56,0,0,0,237,335.94Zm31,.27a5.55,5.55,0,0,0-5.54,5.55V374.4a5.54,5.54,0,0,0,9.17,4.2l.05-.05c7.56-6.56,14.44-16.14,20.46-28.48.62-1.27,1.24-2.59,1.84-3.92a5.55,5.55,0,0,0-4.29-7.78c-7-1-14.15-1.71-21.34-2.15Zm51.69,8.49a5.52,5.52,0,0,0-5.14,3.46c-1.48,3.63-3.06,7.18-4.7,10.55-.69,1.41-1.41,2.82-2.14,4.21a5.47,5.47,0,0,0,.15,5.44,5.56,5.56,0,0,0,4.75,2.7,5.47,5.47,0,0,0,2.65-.68A137.22,137.22,0,0,0,334,358.07a5.55,5.55,0,0,0-1.59-9.61c-3.65-1.27-7.45-2.47-11.27-3.55A5.56,5.56,0,0,0,319.62,344.7Zm-139.25,0a5.5,5.5,0,0,0-1.51.21c-3.82,1.08-7.61,2.28-11.27,3.55a5.55,5.55,0,0,0-1.58,9.61,137.85,137.85,0,0,0,18.78,12.3,5.5,5.5,0,0,0,2.65.68,5.61,5.61,0,0,0,4.76-2.69,5.52,5.52,0,0,0,.15-5.45c-.73-1.38-1.45-2.8-2.14-4.2-1.64-3.36-3.22-6.91-4.7-10.55A5.52,5.52,0,0,0,180.37,344.7Z" transform="translate(-5 -5)"/></g></g><g id="_Group_7" data-name="&lt;Group&gt;"><path id="_Compound_Path_4" data-name="&lt;Compound Path&gt;" class="cls-2" d="M101.3,213.51a9.8,9.8,0,0,1,9.61,7.91l4,20.46c1.42,7.24,2.84,14.9,4,22.85h.28c1.42-8,3.41-15.89,5.11-22.71l5.48-21.17a9.8,9.8,0,0,1,9.48-7.34H141a9.8,9.8,0,0,1,9.5,7.4l5.09,20.26c1.84,7.81,3.69,15.61,5.11,23.56H161c1-8,2.41-15.75,4-23.7l4.29-19.8a9.78,9.78,0,0,1,9.57-7.72h0a9.79,9.79,0,0,1,9.36,12.66L172.92,276a9.79,9.79,0,0,1-9.36,6.92H158a9.78,9.78,0,0,1-9.46-7.26L144,258.48c-1.7-6.81-3-13.05-4.39-21.56h-.29a161.82,161.82,0,0,1-4.54,21.56l-4.93,17.3a9.79,9.79,0,0,1-9.41,7.11h-5.55a9.8,9.8,0,0,1-9.4-7.06L91,226a9.79,9.79,0,0,1,9.4-12.52Z" transform="translate(-5 -5)"/><path id="_Compound_Path_5" data-name="&lt;Compound Path&gt;" class="cls-2" d="M211.67,213.51a9.78,9.78,0,0,1,9.61,7.91l4,20.46c1.42,7.24,2.84,14.9,4,22.85h.28c1.42-8,3.4-15.89,5.11-22.71l5.48-21.17a9.78,9.78,0,0,1,9.47-7.34h1.82a9.79,9.79,0,0,1,9.49,7.4L266,241.17c1.85,7.81,3.69,15.61,5.11,23.56h.28c1-8,2.41-15.75,4-23.7l4.28-19.8a9.79,9.79,0,0,1,9.57-7.72h0a9.79,9.79,0,0,1,9.36,12.66L283.29,276a9.78,9.78,0,0,1-9.35,6.92H268.4a9.8,9.8,0,0,1-9.46-7.26l-4.58-17.15c-1.71-6.81-3-13.05-4.4-21.56h-.28a163.42,163.42,0,0,1-4.54,21.56l-4.93,17.3a9.8,9.8,0,0,1-9.42,7.11h-5.54a9.78,9.78,0,0,1-9.4-7.06L201.38,226a9.79,9.79,0,0,1,9.41-12.52Z" transform="translate(-5 -5)"/><path id="_Compound_Path_6" data-name="&lt;Compound Path&gt;" class="cls-2" d="M322.05,213.51a9.8,9.8,0,0,1,9.61,7.91l4,20.46c1.42,7.24,2.83,14.9,4,22.85h.28c1.42-8,3.41-15.89,5.11-22.71l5.48-21.17a9.8,9.8,0,0,1,9.48-7.34h1.81a9.78,9.78,0,0,1,9.49,7.4l5.1,20.26c1.84,7.81,3.69,15.61,5.1,23.56h.29c1-8,2.41-15.75,4-23.7l4.29-19.8a9.78,9.78,0,0,1,9.57-7.72h0a9.78,9.78,0,0,1,9.35,12.66L393.67,276a9.79,9.79,0,0,1-9.36,6.92h-5.54a9.78,9.78,0,0,1-9.45-7.26l-4.59-17.15c-1.7-6.81-3-13.05-4.4-21.56h-.28a163.42,163.42,0,0,1-4.54,21.56l-4.93,17.3a9.8,9.8,0,0,1-9.41,7.11h-5.55a9.79,9.79,0,0,1-9.4-7.06L311.76,226a9.79,9.79,0,0,1,9.4-12.52Z" transform="translate(-5 -5)"/></g></g></g></svg>