<svg id="Layer_1" data-name="Layer 1" xmlns="http://www.w3.org/2000/svg" viewBox="0 0 495 495"><defs><style>.cls-1{fill:#ff151f;}</style></defs><title>01</title><g id="_Group_" data-name="&lt;Group&gt;"><g id="_Group_2" data-name="&lt;Group&gt;"><path id="_Compound_Path_" data-name="&lt;Compound Path&gt;" class="cls-1" d="M250,15.08c129.54,0,234.92,105.39,234.92,234.92S379.54,484.92,250,484.92,15.08,379.53,15.08,250,120.46,15.08,250,15.08M250,2.5C113.31,2.5,2.5,113.31,2.5,250S113.31,497.5,250,497.5,497.5,386.69,497.5,250,386.69,2.5,250,2.5Z" transform="translate(-2.5 -2.5)"/></g><g id="_Group_3" data-name="&lt;Group&gt;"><path id="_Path_" data-name="&lt;Path&gt;" class="cls-1" d="M115.55,309.25V300.8a3.14,3.14,0,0,1,2.61-3.1l56-9.87a18.07,18.07,0,0,1,10.75,1.41l63,29.36.2.1c1.47.82,18.09,10.57,9.93,28.32-8.54,18.57-28.17,9.89-28.17,9.89l-38.61-18.35a3.15,3.15,0,0,0-4.5,2.85h0a3.15,3.15,0,0,0,1.8,2.84l38.6,18.35s26.6,12.53,38.46-16.13A3.14,3.14,0,0,1,267,345l79.31-46.27s20.2-12.23,31.58-2.27,5.91,23.1-.71,29.5a2.26,2.26,0,0,1-.29.25l-118,90.05a19.5,19.5,0,0,1-19.15,2.57L156.1,385a3.22,3.22,0,0,0-1.18-.23H118.7a3.15,3.15,0,0,1-3.15-3.14Z" transform="translate(-2.5 -2.5)"/><g id="_Group_4" data-name="&lt;Group&gt;"><path id="_Compound_Path_2" data-name="&lt;Compound Path&gt;" class="cls-1" d="M358.47,229c-.17,7.15-1.66,14.28-2.81,21.38-1.59,9.73-3.15,19.47-5.25,29.1-1.51,6.94-7.06,11.31-14.14,12-9.43.92-16.82-2.8-21.16-11.08-3.17-6.05-5.34-12.66-7.58-19.15-.95-2.78-1.87-4.41-5.22-4.23-5.71.29-11.45.11-17.18.14-4.37,0-4.51.21-5.79,4.5a138.7,138.7,0,0,1-4.43,13.76c-2.69,6.5-6.49,11.93-13.59,14.76-11,4.4-22.13-.57-24.57-12.15-2.75-13-5.07-26.15-7.15-39.29-.87-5.48-1.77-11.36-.74-16.68,4.58-23.59,32.22-29.93,46.31-17.37a4.22,4.22,0,0,0,2.65.87q16,0,32-.1a4.92,4.92,0,0,0,2.71-.83c4.86-3.65,10.35-5.17,19-5.13C345.66,199.47,358.87,212.3,358.47,229Zm-88.68,5.07a5.14,5.14,0,0,0,5.23-4.91,5,5,0,0,0-4.78-5.05,40.8,40.8,0,0,0-4.14-.09c-1.26,0-2.52,0-4.13,0,0-2.54,0-4.88,0-7.21-.07-3.55-2.24-5.9-5.31-5.8s-4.75,2.3-4.76,5.9c0,2.25,0,4.51,0,7.16-2.61,0-5-.05-7.46,0-3.59.13-5.86,2.12-5.82,5s2.23,4.89,5.78,5.05c1.18,0,2.36,0,3.55,0l4,0c0,2.55,0,5,0,7.39,0,3.66,1.87,5.69,5,5.64s5.07-2.27,5.08-5.64c0-2.35,0-4.7,0-7.41C264.88,234.13,267.33,234.17,269.79,234.1Zm64.1-19a6.93,6.93,0,1,0-6.86,7A7,7,0,0,0,333.89,215.13Zm-.08,13.59a7.16,7.16,0,0,0,6.81,7.2,7.08,7.08,0,1,0-6.81-7.2Zm.52,14.19a6.95,6.95,0,0,0-13.89.14,6.95,6.95,0,1,0,13.89-.14Zm-20.9-6.9a6.84,6.84,0,0,0,6.74-6.82,6.9,6.9,0,1,0-13.8,0A6.86,6.86,0,0,0,313.43,236Z" transform="translate(-2.5 -2.5)"/></g><path id="_Path_2" data-name="&lt;Path&gt;" class="cls-1" d="M183.11,154.21v62.51c-3.35-2.57-10.69-4-17.22-4-19.55,0-35.07,13.19-35.07,29.46s16,29.47,35.57,29.47,35.49-10.05,35.49-26.32c0,0,.09,3,.09,3h1.21v-55.9s3.34,2.7,16.72-3V153A34.59,34.59,0,0,1,183.11,154.21Z" transform="translate(-2.5 -2.5)"/><path id="_Compound_Path_3" data-name="&lt;Compound Path&gt;" class="cls-1" d="M347.69,121.09a13.65,13.65,0,0,0-13.76-13.54l-71.95.57a13.65,13.65,0,0,0-13.55,13.77l.38,47.88a13.65,13.65,0,0,0,13.77,13.55l71.95-.57A13.67,13.67,0,0,0,348.08,169Zm-28.93,29.62-30.55,19.07a5.72,5.72,0,0,1-8.75-4.78l-.3-37.66a5.72,5.72,0,0,1,8.67-4.92L318.66,141A5.69,5.69,0,0,1,318.76,150.71Z" transform="translate(-2.5 -2.5)"/></g></g></svg>