<svg width="16" height="16" viewBox="0 0 16 16" fill="none" xmlns="http://www.w3.org/2000/svg">
<g clip-path="url(#clip0_107_59)">
<path d="M7.93795 2.016C7.95755 2.00525 7.97959 1.99974 8.00195 2C8.02396 1.99991 8.04564 2.00542 8.06495 2.016C8.08781 2.02971 8.10649 2.04942 8.11895 2.073L14.9759 13.74C15.0119 13.8 15.0109 13.864 14.9779 13.923C14.9653 13.9472 14.9467 13.9678 14.9239 13.983C14.9041 13.9951 14.8812 14.0011 14.8579 14H1.14595C1.12273 14.0011 1.09972 13.9952 1.07995 13.983C1.0572 13.9678 1.03863 13.9472 1.02595 13.923C1.00947 13.8952 1.00094 13.8635 1.00129 13.8312C1.00164 13.7989 1.01086 13.7674 1.02795 13.74L7.88395 2.073C7.89644 2.04945 7.91511 2.02975 7.93795 2.016V2.016ZM8.98195 1.566C8.88296 1.39356 8.74022 1.2503 8.56815 1.15067C8.39608 1.05104 8.20077 0.998581 8.00195 0.998581C7.80312 0.998581 7.60781 1.05104 7.43574 1.15067C7.26367 1.2503 7.12094 1.39356 7.02195 1.566L0.164946 13.233C-0.292054 14.011 0.255946 15 1.14495 15H14.8579C15.7469 15 16.2959 14.01 15.8379 13.233L8.98195 1.566Z" fill="#221E20"/>
<path d="M7.00195 12C7.00195 11.8687 7.02782 11.7386 7.07807 11.6173C7.12833 11.496 7.20199 11.3857 7.29485 11.2929C7.38771 11.2 7.49794 11.1264 7.61927 11.0761C7.7406 11.0259 7.87063 11 8.00195 11C8.13328 11 8.26331 11.0259 8.38464 11.0761C8.50596 11.1264 8.6162 11.2 8.70906 11.2929C8.80192 11.3857 8.87558 11.496 8.92583 11.6173C8.97609 11.7386 9.00195 11.8687 9.00195 12C9.00195 12.2652 8.8966 12.5196 8.70906 12.7071C8.52152 12.8946 8.26717 13 8.00195 13C7.73674 13 7.48238 12.8946 7.29485 12.7071C7.10731 12.5196 7.00195 12.2652 7.00195 12V12ZM7.09995 5.995C7.08664 5.86884 7.09999 5.74129 7.13915 5.62062C7.17831 5.49996 7.24241 5.38888 7.32727 5.29458C7.41214 5.20029 7.51588 5.12489 7.63176 5.07328C7.74765 5.02167 7.87309 4.995 7.99995 4.995C8.12681 4.995 8.25226 5.02167 8.36814 5.07328C8.48403 5.12489 8.58777 5.20029 8.67263 5.29458C8.7575 5.38888 8.82159 5.49996 8.86075 5.62062C8.89991 5.74129 8.91327 5.86884 8.89995 5.995L8.54995 9.502C8.53819 9.63977 8.47516 9.76811 8.37331 9.86163C8.27146 9.95515 8.13823 10.007 7.99995 10.007C7.86168 10.007 7.72844 9.95515 7.6266 9.86163C7.52475 9.76811 7.46171 9.63977 7.44995 9.502L7.09995 5.995Z" fill="#221E20"/>
</g>
<defs>
<clipPath id="clip0_107_59">
<rect width="16" height="16" fill="white"/>
</clipPath>
</defs>
</svg>
