<svg id="Layer_1" data-name="Layer 1" xmlns="http://www.w3.org/2000/svg" viewBox="0 0 249 249"><defs><style>.cls-1{fill:#ed1c24;}</style></defs><title>ebill</title><g id="_Group_" data-name="&lt;Group&gt;"><path id="_Compound_Path_" data-name="&lt;Compound Path&gt;" class="cls-1" d="M125,7A118,118,0,1,1,7,125,118.1,118.1,0,0,1,125,7M125,.5A124.5,124.5,0,1,0,249.5,125,124.5,124.5,0,0,0,125,.5Z" transform="translate(-0.5 -0.5)"/><g id="_Group_2" data-name="&lt;Group&gt;"><g id="_Group_3" data-name="&lt;Group&gt;"><g id="_Group_4" data-name="&lt;Group&gt;"><g id="_Group_5" data-name="&lt;Group&gt;"><rect id="_Path_" data-name="&lt;Path&gt;" class="cls-1" x="85.74" y="135.47" width="77.53" height="6.21" rx="3.11" ry="3.11"/></g><g id="_Group_6" data-name="&lt;Group&gt;"><rect id="_Path_2" data-name="&lt;Path&gt;" class="cls-1" x="85.74" y="150.07" width="77.53" height="6.21" rx="3.11" ry="3.11"/></g><g id="_Group_7" data-name="&lt;Group&gt;"><rect id="_Path_3" data-name="&lt;Path&gt;" class="cls-1" x="85.74" y="164.66" width="49.53" height="6.21" rx="3.11" ry="3.11"/></g><g id="_Group_8" data-name="&lt;Group&gt;"><path id="_Compound_Path_2" data-name="&lt;Compound Path&gt;" class="cls-1" d="M158.35,194.72H91.65A21.57,21.57,0,0,1,70.1,173.17V76.82A21.57,21.57,0,0,1,91.65,55.28h66.7A21.57,21.57,0,0,1,179.9,76.82v96.35A21.57,21.57,0,0,1,158.35,194.72Zm-66.7-132A14.16,14.16,0,0,0,77.5,76.82v96.35a14.16,14.16,0,0,0,14.15,14.15h66.7a14.16,14.16,0,0,0,14.15-14.15V76.82a14.16,14.16,0,0,0-14.15-14.14Z" transform="translate(-0.5 -0.5)"/></g></g></g><g id="_Group_9" data-name="&lt;Group&gt;"><path id="_Compound_Path_3" data-name="&lt;Compound Path&gt;" class="cls-1" d="M150.09,95.37c0,9.11-5.38,14.22-12.13,14.22-3,0-5.77-.85-7.15-3.34a12.83,12.83,0,0,1-8.45,3.28c-4.66,0-9.57-3.35-9.57-10.23S118,87,124.72,87c2.82,0,5.37.85,6.95,3.08A3.69,3.69,0,0,1,134.81,88a2.86,2.86,0,0,1,3.08,2.62,5.11,5.11,0,0,1-.06.92l-1.44,8a5.52,5.52,0,0,0-.13,1c0,2,.65,2.63,2,2.63,3.15,0,4.85-2.63,4.85-7,0-8.71-6.62-14.61-16.78-14.61-10.88,0-19.07,7.27-19.07,18,0,10.23,8.19,15.34,18.09,15.34a15.51,15.51,0,0,0,8.65-2.29,1.88,1.88,0,0,1,1-.33c1.44,0,2.69,2.42,2.69,3.93a2.61,2.61,0,0,1-1.31,2.29,21.82,21.82,0,0,1-11.28,3c-13,0-24.91-8-24.91-22C100.2,85.08,111.41,75,126.88,75,140.45,75,150.09,83.37,150.09,95.37Zm-20.52,2.16a4.24,4.24,0,0,0-4.53-4.2,5.1,5.1,0,0,0-5.24,5.38c0,2.56,1.77,4.26,4.52,4.26A5.15,5.15,0,0,0,129.57,97.53Z" transform="translate(-0.5 -0.5)"/></g></g></g></svg>