<svg width="16" height="16" viewBox="0 0 16 16" fill="none" xmlns="http://www.w3.org/2000/svg">
<path d="M3.5 7C3.36739 7 3.24021 7.05268 3.14645 7.14645C3.05268 7.24021 3 7.36739 3 7.5C3 7.63261 3.05268 7.75979 3.14645 7.85355C3.24021 7.94732 3.36739 8 3.5 8H8.5C8.63261 8 8.75979 7.94732 8.85355 7.85355C8.94732 7.75979 9 7.63261 9 7.5C9 7.36739 8.94732 7.24021 8.85355 7.14645C8.75979 7.05268 8.63261 7 8.5 7H3.5ZM3 9.5C3 9.36739 3.05268 9.24021 3.14645 9.14645C3.24021 9.05268 3.36739 9 3.5 9H8.5C8.63261 9 8.75979 9.05268 8.85355 9.14645C8.94732 9.24021 9 9.36739 9 9.5C9 9.63261 8.94732 9.75979 8.85355 9.85355C8.75979 9.94732 8.63261 10 8.5 10H3.5C3.36739 10 3.24021 9.94732 3.14645 9.85355C3.05268 9.75979 3 9.63261 3 9.5ZM3 11.5C3 11.3674 3.05268 11.2402 3.14645 11.1464C3.24021 11.0527 3.36739 11 3.5 11H5.5C5.63261 11 5.75979 11.0527 5.85355 11.1464C5.94732 11.2402 6 11.3674 6 11.5C6 11.6326 5.94732 11.7598 5.85355 11.8536C5.75979 11.9473 5.63261 12 5.5 12H3.5C3.36739 12 3.24021 11.9473 3.14645 11.8536C3.05268 11.7598 3 11.6326 3 11.5Z" fill="black"/>
<path d="M7.5 0H2C1.46957 0 0.960859 0.210714 0.585786 0.585786C0.210714 0.960859 0 1.46957 0 2V14C0 14.5304 0.210714 15.0391 0.585786 15.4142C0.960859 15.7893 1.46957 16 2 16H10C10.5304 16 11.0391 15.7893 11.4142 15.4142C11.7893 15.0391 12 14.5304 12 14V4.5L7.5 0ZM7.5 1V3C7.5 3.39782 7.65804 3.77936 7.93934 4.06066C8.22064 4.34196 8.60218 4.5 9 4.5H11V14C11 14.2652 10.8946 14.5196 10.7071 14.7071C10.5196 14.8946 10.2652 15 10 15H2C1.73478 15 1.48043 14.8946 1.29289 14.7071C1.10536 14.5196 1 14.2652 1 14V2C1 1.73478 1.10536 1.48043 1.29289 1.29289C1.48043 1.10536 1.73478 1 2 1H7.5Z" fill="black"/>
<path d="M15.8873 4.11284C15.9595 4.18524 16 4.28332 16 4.38556C16 4.4878 15.9595 4.58588 15.8873 4.65828L15.0814 5.46487L13.536 3.91969L14.3419 3.1131C14.4143 3.04068 14.5126 3 14.615 3C14.7175 3 14.8157 3.04068 14.8882 3.1131L15.8873 4.11206V4.11284ZM14.5351 6.01032L12.9897 4.46514L7.72534 9.72957C7.68281 9.77209 7.6508 9.82394 7.63184 9.881L7.00983 11.746C6.99854 11.78 6.99694 11.8165 7.0052 11.8514C7.01346 11.8862 7.03125 11.9181 7.05658 11.9434C7.08191 11.9688 7.11379 11.9865 7.14866 11.9948C7.18352 12.0031 7.21999 12.0015 7.254 11.9902L9.11927 11.3682C9.17627 11.3495 9.22812 11.3178 9.27072 11.2755L14.5351 6.01109V6.01032Z" fill="black"/>
</svg>
