<svg xmlns="http://www.w3.org/2000/svg" width="24.382" height="24.382" viewBox="0 0 24.382 24.382"><defs><style>.a{fill:#fbbb00;}.b{fill:#518ef8;}.c{fill:#28b446;}.d{fill:#f14336;}</style></defs><path class="a" d="M5.4,146.418l-.849,3.168-3.1.066a12.212,12.212,0,0,1-.09-11.384h0l2.762.506,1.21,2.745a7.276,7.276,0,0,0,.068,4.9Z" transform="translate(0 -131.684)"/><path class="b" d="M273.338,208.176a12.186,12.186,0,0,1-4.346,11.784h0l-3.478-.177-.492-3.073a7.266,7.266,0,0,0,3.126-3.71h-6.519v-4.823h11.71Z" transform="translate(-249.169 -198.262)"/><path class="c" d="M48.879,316.372h0a12.2,12.2,0,0,1-18.37-3.73l3.951-3.234a7.25,7.25,0,0,0,10.448,3.712Z" transform="translate(-29.056 -294.675)"/><path class="d" d="M47.233,2.807,43.284,6.04A7.25,7.25,0,0,0,32.6,9.836L28.625,6.584h0A12.194,12.194,0,0,1,47.233,2.807Z" transform="translate(-27.261)"/></svg>