<svg id="Layer_5" data-name="Layer 5" xmlns="http://www.w3.org/2000/svg" viewBox="0 0 249 249"><defs><style>.cls-1{fill:#ed1c24;}.cls-2{fill:#ff151f;}</style></defs><title>Roaming Offer</title><g id="_Group_" data-name="&lt;Group&gt;"><path id="_Compound_Path_" data-name="&lt;Compound Path&gt;" class="cls-1" d="M125,7A118,118,0,1,1,7,125,118.1,118.1,0,0,1,125,7M125,.5A124.5,124.5,0,1,0,249.5,125,124.5,124.5,0,0,0,125,.5Z" transform="translate(-0.5 -0.5)"/><g id="_Group_2" data-name="&lt;Group&gt;"><g id="_Group_3" data-name="&lt;Group&gt;"><g id="_Group_4" data-name="&lt;Group&gt;"><g id="_Group_5" data-name="&lt;Group&gt;"><g id="_Group_6" data-name="&lt;Group&gt;"><g id="_Group_7" data-name="&lt;Group&gt;"><path class="cls-1" d="M131.49,73.7l-1.8.8c-4,1.83-8.12,3.58-12.32,5a62.25,62.25,0,0,1-6.3,1.84,27.2,27.2,0,0,1-4.4.68,10.39,10.39,0,0,1-3.68-.3,3.67,3.67,0,0,1-2.36-1.8c-.22-.44-.38-.92-.58-1.38q-2.3-5.16-4.6-10.31a1.34,1.34,0,0,1,.65-1.91,3.66,3.66,0,0,1,3.61.19c.75.46,1.42,1.06,2.14,1.59l3.41,2.52c.43.31.85.64,1.29.93a2.31,2.31,0,0,0,2.3.12l7.7-3.4,11.35-5,8.86-4,9.83-4.38,4-1.79a17.29,17.29,0,0,1,5.12-1.43A13.22,13.22,0,0,1,163,52.78a7.11,7.11,0,0,1,2.52,1.83c.15.18.28.39.41.58a.63.63,0,0,1,0,.8,7.93,7.93,0,0,1-1,1.08,28.27,28.27,0,0,1-4.33,2.83c-4.08,2.31-8.3,4.35-12.54,6.35-.81.38-1.63.76-2.45,1.16a.49.49,0,0,0-.23.24q-2.13,4.59-4.24,9.2c-1.09,2.38-2.19,4.75-3.28,7.13-1.24,2.69-2.46,5.38-3.71,8.06a8.53,8.53,0,0,1-3.26,3.79,13.56,13.56,0,0,1-1.9.85l-.87.36c-.3.11-.55,0-.61-.29a3.07,3.07,0,0,1,0-1c.31-1.74.66-3.47,1-5.2q.54-2.86,1.06-5.73c.37-2,.73-4,1.1-6,.31-1.65.61-3.29.92-4.94C131.48,73.84,131.48,73.78,131.49,73.7Z" transform="translate(-0.5 -0.5)"/></g><g id="_Group_8" data-name="&lt;Group&gt;"><path class="cls-1" d="M130.55,58.88l-3.07,1.39c-2.37,1.07-4.74,2.13-7.11,3.21a.35.35,0,0,1-.37,0q-4.41-2.73-8.82-5.48A14.49,14.49,0,0,1,109.9,57a1.79,1.79,0,0,1-.39-.48.35.35,0,0,1,.15-.55c.79-.41,1.57-.86,2.39-1.2a5,5,0,0,1,1.55-.31,12.24,12.24,0,0,1,3.82.22c1,.26,2,.61,3,.93l9.84,3.14Z" transform="translate(-0.5 -0.5)"/></g></g><path id="_Compound_Path_2" data-name="&lt;Compound Path&gt;" class="cls-1" d="M135.41,134.4v3.94H75.59V46.23h59.82v9.38l2-1.51a54.78,54.78,0,0,1,6.34-2.48V44a8,8,0,0,0-8-8H75.67a8,8,0,0,0-8,8v102.1a8,8,0,0,0,8,7.95h60.15a8,8,0,0,0,8-7.95V135.71S135.9,135.08,135.41,134.4Zm-24.58,15.16H100.66c-1.07,0-1.94-2.32-1.94-3.39s.87-3.38,1.94-3.38h10.17c1.07,0,1.94,2.32,1.94,3.38S111.9,149.56,110.83,149.56Z" transform="translate(-0.5 -0.5)"/></g></g><path id="_Compound_Path_3" data-name="&lt;Compound Path&gt;" class="cls-1" d="M163.71,62.87l-12,6a32.31,32.31,0,0,1,6.66,11.65h-9.71V70.4l-1.83.91-6.28,15.17h2.16v16.37H131.28c-.19-1.19-.33-2.4-.44-3.62l-5.72,2.3c0,.44.08.89.14,1.32h-9a29.7,29.7,0,0,1,0-16.37h8c.62-2.65,1.22-5.15,1.22-5.15L110.23,85.9a36.56,36.56,0,1,0,53.48-23ZM118.57,108.8h7.89a41.31,41.31,0,0,0,6.22,13.54A30.74,30.74,0,0,1,118.57,108.8Zm24.16,15.38c-4.46-3.17-8-8.67-10-15.38h10Zm14.71-57.79a30.87,30.87,0,0,1,15.4,14.13h-8.2A40.2,40.2,0,0,0,157.44,66.39Zm-8.76,20.09h11.25a47.24,47.24,0,0,1,.81,8.68,48.37,48.37,0,0,1-.62,7.69H148.68Zm0,37.7V108.8h10C156.66,115.51,153.13,121,148.68,124.18Zm10-1.84A41.73,41.73,0,0,0,165,108.8h7.89A30.84,30.84,0,0,1,158.73,122.34Zm7.42-19.49a55.25,55.25,0,0,0,.54-7.69,54.58,54.58,0,0,0-.7-8.68h9.19a30,30,0,0,1,0,16.37Z" transform="translate(-0.5 -0.5)"/></g><path id="_Path_" data-name="&lt;Path&gt;" class="cls-2" d="M70.34,168.8v-3.44a1.29,1.29,0,0,1,1.06-1.26l22.78-4a7.3,7.3,0,0,1,4.37.58l25.63,11.93.08,0c.6.33,7.35,4.3,4,11.52-3.47,7.55-11.46,4-11.46,4l-15.69-7.46a1.28,1.28,0,0,0-1.83,1.15h0a1.27,1.27,0,0,0,.73,1.16l15.69,7.46s10.82,5.1,15.64-6.55a1.26,1.26,0,0,1,.53-.61l32.25-18.81s8.21-5,12.84-.92,2.4,9.39-.29,12l-.12.1-48,36.61a7.92,7.92,0,0,1-7.78,1l-34-13.74a1.29,1.29,0,0,0-.48-.1H71.62a1.28,1.28,0,0,1-1.28-1.28Z" transform="translate(-0.5 -0.5)"/></g></g></svg>