<svg width="40" height="40" viewBox="0 0 40 40" fill="none" xmlns="http://www.w3.org/2000/svg">
<circle cx="20" cy="20" r="20" fill="#221E20" fill-opacity="0.5"/>
<path fill-rule="evenodd" clip-rule="evenodd" d="M27.9426 24.1925C27.8845 24.2507 27.8156 24.2969 27.7396 24.3284C27.6637 24.3599 27.5823 24.3761 27.5001 24.3761C27.4179 24.3761 27.3365 24.3599 27.2606 24.3284C27.1846 24.2969 27.1157 24.2507 27.0576 24.1925L20.0001 17.1337L12.9426 24.1925C12.8845 24.2506 12.8155 24.2967 12.7396 24.3281C12.6637 24.3596 12.5823 24.3758 12.5001 24.3758C12.4179 24.3758 12.3365 24.3596 12.2606 24.3281C12.1847 24.2967 12.1157 24.2506 12.0576 24.1925C11.9995 24.1344 11.9534 24.0654 11.9219 23.9895C11.8905 23.9136 11.8743 23.8322 11.8743 23.75C11.8743 23.6678 11.8905 23.5864 11.9219 23.5105C11.9534 23.4346 11.9995 23.3656 12.0576 23.3075L19.5576 15.8075C19.6157 15.7493 19.6846 15.7031 19.7606 15.6716C19.8365 15.6401 19.9179 15.6239 20.0001 15.6239C20.0823 15.6239 20.1637 15.6401 20.2396 15.6716C20.3156 15.7031 20.3845 15.7493 20.4426 15.8075L27.9426 23.3075C28.0008 23.3656 28.047 23.4345 28.0785 23.5105C28.11 23.5864 28.1262 23.6678 28.1262 23.75C28.1262 23.8322 28.11 23.9136 28.0785 23.9895C28.047 24.0655 28.0008 24.1344 27.9426 24.1925V24.1925Z" fill="white" stroke="white" stroke-linejoin="round"/>
</svg>
