<svg width="16" height="16" viewBox="0 0 16 16" fill="none" xmlns="http://www.w3.org/2000/svg">
<path d="M10.9699 4.97C11.1108 4.83589 11.2982 4.76175 11.4927 4.76322C11.6872 4.76469 11.8735 4.84166 12.0124 4.97789C12.1512 5.11412 12.2317 5.29895 12.2368 5.49338C12.2419 5.68781 12.1713 5.87663 12.0399 6.02L8.04991 11.01C7.9813 11.0839 7.8985 11.1432 7.80645 11.1844C7.71439 11.2255 7.61498 11.2477 7.51416 11.2496C7.41334 11.2514 7.31318 11.233 7.21967 11.1952C7.12616 11.1575 7.04121 11.1013 6.96991 11.03L4.32391 8.384C4.25023 8.31534 4.19112 8.23254 4.15013 8.14054C4.10914 8.04854 4.0871 7.94923 4.08532 7.84852C4.08355 7.74782 4.10207 7.64779 4.13979 7.5544C4.17751 7.46102 4.23366 7.37618 4.30488 7.30496C4.37609 7.23374 4.46093 7.1776 4.55432 7.13988C4.6477 7.10216 4.74773 7.08363 4.84844 7.08541C4.94914 7.08719 5.04845 7.10923 5.14045 7.15022C5.23245 7.19121 5.31525 7.25031 5.38391 7.324L7.47791 9.417L10.9509 4.992C10.9572 4.9843 10.9638 4.97696 10.9709 4.97H10.9699Z" fill="white"/>
</svg>
