<svg width="16" height="16" viewBox="0 0 16 16" fill="none" xmlns="http://www.w3.org/2000/svg">
<path fill-rule="evenodd" clip-rule="evenodd" d="M1.64592 4.646C1.69236 4.59944 1.74754 4.56249 1.80828 4.53729C1.86903 4.51208 1.93415 4.49911 1.99992 4.49911C2.06568 4.49911 2.13081 4.51208 2.19155 4.53729C2.2523 4.56249 2.30747 4.59944 2.35392 4.646L7.99992 10.293L13.6459 4.646C13.6924 4.59951 13.7476 4.56264 13.8083 4.53748C13.8691 4.51232 13.9342 4.49937 13.9999 4.49937C14.0657 4.49937 14.1308 4.51232 14.1915 4.53748C14.2522 4.56264 14.3074 4.59951 14.3539 4.646C14.4004 4.69249 14.4373 4.74768 14.4624 4.80842C14.4876 4.86916 14.5005 4.93426 14.5005 5C14.5005 5.06574 14.4876 5.13085 14.4624 5.19158C14.4373 5.25232 14.4004 5.30751 14.3539 5.354L8.35392 11.354C8.30747 11.4006 8.2523 11.4375 8.19155 11.4627C8.13081 11.4879 8.06568 11.5009 7.99992 11.5009C7.93415 11.5009 7.86903 11.4879 7.80828 11.4627C7.74754 11.4375 7.69236 11.4006 7.64592 11.354L1.64592 5.354C1.59935 5.30756 1.56241 5.25238 1.5372 5.19163C1.512 5.13089 1.49902 5.06577 1.49902 5C1.49902 4.93423 1.512 4.86911 1.5372 4.80837C1.56241 4.74762 1.59935 4.69245 1.64592 4.646V4.646Z" fill="#231F21" stroke="#231F21" stroke-width="0.5" stroke-linejoin="round"/>
</svg>
