<svg width="48" height="48" viewBox="0 0 48 48" fill="none" xmlns="http://www.w3.org/2000/svg">
<circle cx="24" cy="24" r="24" fill="#221E20"/>
<path d="M15.3776 15.3776C15.497 15.2579 15.6389 15.163 15.7951 15.0982C15.9512 15.0334 16.1187 15 16.2877 15C16.4568 15 16.6242 15.0334 16.7804 15.0982C16.9366 15.163 17.0784 15.2579 17.1978 15.3776L24.0003 22.1827L30.8029 15.3776C30.9224 15.2581 31.0643 15.1633 31.2204 15.0986C31.3766 15.034 31.5439 15.0007 31.7129 15.0007C31.882 15.0007 32.0493 15.034 32.2055 15.0986C32.3616 15.1633 32.5035 15.2581 32.623 15.3776C32.7425 15.4972 32.8374 15.639 32.902 15.7952C32.9667 15.9513 33 16.1187 33 16.2877C33 16.4568 32.9667 16.6241 32.902 16.7803C32.8374 16.9364 32.7425 17.0783 32.623 17.1978L25.8179 24.0003L32.623 30.8029C32.7425 30.9224 32.8374 31.0643 32.902 31.2204C32.9667 31.3766 33 31.5439 33 31.7129C33 31.882 32.9667 32.0493 32.902 32.2055C32.8374 32.3616 32.7425 32.5035 32.623 32.623C32.5035 32.7425 32.3616 32.8373 32.2055 32.902C32.0493 32.9667 31.882 33 31.7129 33C31.5439 33 31.3766 32.9667 31.2204 32.902C31.0643 32.8373 30.9224 32.7425 30.8029 32.623L24.0003 25.8179L17.1978 32.623C17.0783 32.7425 16.9364 32.8373 16.7803 32.902C16.6241 32.9667 16.4568 33 16.2877 33C16.1187 33 15.9513 32.9667 15.7952 32.902C15.639 32.8373 15.4972 32.7425 15.3776 32.623C15.2581 32.5035 15.1633 32.3616 15.0986 32.2055C15.034 32.0493 15.0007 31.882 15.0007 31.7129C15.0007 31.5439 15.034 31.3766 15.0986 31.2204C15.1633 31.0643 15.2581 30.9224 15.3776 30.8029L22.1827 24.0003L15.3776 17.1978C15.2579 17.0784 15.163 16.9366 15.0982 16.7804C15.0334 16.6242 15 16.4568 15 16.2877C15 16.1187 15.0334 15.9512 15.0982 15.7951C15.163 15.6389 15.2579 15.497 15.3776 15.3776Z" fill="white"/>
</svg>
