<?xml version="1.0" encoding="utf-8"?>
<!-- Generator: Adobe Illustrator 19.0.0, SVG Export Plug-In . SVG Version: 6.00 Build 0)  -->
<svg version="1.1" id="Layer_1" xmlns="http://www.w3.org/2000/svg" xmlns:xlink="http://www.w3.org/1999/xlink" x="0px" y="0px"
	 width="81px" height="81px" viewBox="-265 356 81 81" style="enable-background:new -265 356 81 81;" xml:space="preserve">
<style type="text/css">
	.st0{fill:#ED1C24;}
</style>
<g id="XMLID_1564_">
	<g id="XMLID_1556_">
		<g id="XMLID_1557_">
			<path id="XMLID_1561_" class="st0" d="M-224.7,402.7l-2.2,0c-0.2,0-0.3-0.1-0.4-0.2l-4.1-4.9l-1,1v3.6c0,0.3-0.2,0.5-0.5,0.5
				h-0.9c-0.3,0-0.5-0.2-0.5-0.5v-10.7c0-0.3,0.2-0.5,0.5-0.5h0.9c0.3,0,0.5,0.2,0.5,0.5v3.1c0,0.5,0.6,0.7,0.9,0.4l3.8-3.9
				c0.1-0.1,0.2-0.2,0.4-0.2h2.4l-4.9,5c-0.2,0.2-0.2,0.5,0,0.7L-224.7,402.7z"/>
			<path id="XMLID_1558_" class="st0" d="M-220.3,390.9c0.9,0,1.7,0.1,2.4,0.4c0.7,0.3,1.4,0.7,1.9,1.2c0.5,0.5,1,1.1,1.3,1.9
				c0.3,0.7,0.5,1.5,0.5,2.4s-0.2,1.7-0.5,2.4c-0.3,0.7-0.7,1.3-1.3,1.9c-0.5,0.5-1.2,0.9-1.9,1.2c-0.7,0.3-1.5,0.4-2.4,0.4h-3
				c-0.5,0-0.9-0.4-0.9-0.9v-10c0-0.5,0.4-0.9,0.9-0.9H-220.3z M-220.3,400.7c0.6,0,1.1-0.1,1.6-0.3c0.5-0.2,0.9-0.5,1.3-0.8
				c0.4-0.3,0.7-0.7,0.9-1.2c0.2-0.5,0.3-1,0.3-1.6c0-0.6-0.1-1.1-0.3-1.6s-0.5-0.9-0.9-1.2c-0.4-0.3-0.8-0.6-1.3-0.8
				c-0.5-0.2-1-0.3-1.6-0.3h-1.8v7.7H-220.3z"/>
		</g>
	</g>
	<path id="XMLID_1548_" class="st0" d="M-212.6,405.4c-0.2-0.2-0.4-0.3-0.6-0.2c-0.2,0-0.3,0.1-0.4,0.2c-0.7,0.8-1.5,1.5-2.3,2.1
		c-0.2,0.1-0.3,0.3-0.5,0.4c-0.1,0.1-0.3,0.2-0.4,0.3c-2.4,1.6-5.2,2.5-8.1,2.5h-0.1c-3.5,0-6.7-1.2-9.2-3.3
		c-0.1-0.1-0.3-0.2-0.4-0.4c0,0-0.1-0.1-0.1-0.1c-2.3-2-4-4.6-4.7-7.7c-0.1-0.2-0.1-0.4-0.2-0.4c-0.3-0.4-0.4-0.4-0.7-0.4
		c-0.4,0-0.6,0.2-0.6,0.2c-0.2,0.2-0.2,0.6-0.2,0.9c1.8,7.5,8.4,12.9,16.1,12.9h0.1c4.4,0,8.7-1.9,11.8-5.1l4.4,4.2
		c-4.3,4.3-10.1,6.5-16.1,6.5h-0.1c-11.3,0-20.7-8.1-22.4-19.2c-0.1-0.4-0.4-0.7-0.8-0.7c-2.5,0-6.2-0.1-6.2-0.1
		c-0.4,0-0.9-0.1-1-0.5c-0.1-0.3,0-0.8,0.3-1.1l10.8-10.7c0,0,0.1-0.1,0.2-0.1c0.1,0,0.1,0,0.2,0.1l2.3,2.3l2.8,2.8c0,0,0,0,0,0
		l0.1,0.1c0,0,0,0,0,0c0.3,0.3,0.8,0.3,1.1,0c0.3-0.3,0.3-0.9,0-1.2l-0.4-0.4c0,0,0,0,0,0l-4.7-4.7c-0.7-0.7-2-0.8-2.7,0l-10.8,10.7
		c-0.8,0.7-1.1,1.9-0.8,2.9c0.4,1,1.3,1.6,2.6,1.6c0,0,3,0,5.5,0.1c2.1,11.6,12.1,20.1,23.9,20.1h0.1c6.8,0,13.3-2.8,17.9-7.8
		c0.3-0.3,0.3-0.8,0-1.2L-212.6,405.4z"/>
	<g id="XMLID_1546_">
		<path id="XMLID_1547_" class="st0" d="M-236.4,387.5c0.2,0.2,0.4,0.3,0.6,0.2c0.2,0,0.3-0.1,0.4-0.2c0.7-0.8,1.5-1.5,2.3-2.1
			c0.2-0.1,0.3-0.3,0.5-0.4c0.1-0.1,0.3-0.1,0.4-0.2c2.4-1.6,5.2-2.4,8.1-2.4h0.1c3.5,0,6.7,1.2,9.2,3.2c0.1,0.1,0.3,0.2,0.4,0.3
			c0,0,0.1,0.1,0.1,0.1c2.3,2,4,4.6,4.7,7.7c0.1,0.2,0.1,0.4,0.2,0.4c0.3,0.4,0.4,0.4,0.7,0.4c0.4,0,0.6-0.2,0.6-0.2
			c0.2-0.2,0.2-0.6,0.2-0.8c-1.8-7.5-8.4-12.9-16.1-12.9h-0.1c-4.4,0-8.7,1.9-11.8,5l-4.4-4.2c4.3-4.3,10.1-6.5,16.1-6.5h0.1
			c11.3,0,20.7,8,22.4,19.2c0.1,0.4,0.4,0.6,0.8,0.6c2.5,0,6.2,0,6.2,0c0.4,0,0.9,0.1,1,0.5c0.1,0.3,0,0.8-0.3,1l-10.8,10.7
			c0,0-0.1,0.1-0.2,0.1c-0.1,0-0.1,0-0.2-0.1l-2.3-2.3l-2.8-2.8c0,0,0,0,0,0l-0.1-0.1c0,0,0,0,0,0c-0.3-0.3-0.8-0.3-1.1,0
			c-0.3,0.3-0.3,0.9,0,1.2l0.4,0.4c0,0,0,0,0,0l4.7,4.7c0.7,0.7,2,0.8,2.7,0l10.8-10.7c0.8-0.7,1.1-1.9,0.8-2.9
			c-0.4-1-1.3-1.6-2.6-1.6c0,0-3,0-5.5,0c-2.1-11.6-12.1-20-23.9-20h-0.1c-6.8,0-13.3,2.8-17.9,7.8c-0.3,0.3-0.3,0.8,0,1.1
			L-236.4,387.5z"/>
	</g>
</g>
</svg>
