<svg xmlns="http://www.w3.org/2000/svg" width="28.216" height="40.468" viewBox="0 0 28.216 40.468">
  <g id="Group_2_Copy_2" data-name="Group 2 Copy 2" transform="translate(0 -0.389)">
    <g id="Group">
      <g id="Group_16" data-name="Group 16" transform="translate(0.041)">
        <path id="Fill_1" data-name="Fill 1" d="M6.413,11.714H0L1.98,0H4.434Z" transform="translate(10.716 19.558)" fill="#f6f6f6"/>
        <path id="Fill_2" data-name="Fill 2" d="M0,10.117H22.737V0H0Z" transform="translate(2.554 29.674)" fill="#dedede"/>
        <path id="Fill_3" data-name="Fill 3" d="M0,10.117H4.664V0H0Z" transform="translate(20.627 29.674)" fill="#e6e6e6"/>
        <g id="Group_15" data-name="Group 15" transform="translate(0.222 0.389)">
          <path id="Fill_4" data-name="Fill 4" d="M24.474,2.311H1.269A1.216,1.216,0,0,1,0,1.156,1.216,1.216,0,0,1,1.269,0h23.2a1.217,1.217,0,0,1,1.269,1.156,1.216,1.216,0,0,1-1.269,1.155" transform="translate(0.789 27.627)" fill="#ff8435"/>
          <path id="Fill_6" data-name="Fill 6" d="M24.474,2.311H1.269A1.216,1.216,0,0,1,0,1.156,1.216,1.216,0,0,1,1.269,0h23.2a1.217,1.217,0,0,1,1.269,1.156,1.216,1.216,0,0,1-1.269,1.155" transform="translate(0.789 38.157)" fill="#f5f5f5"/>
          <g id="Group_10" data-name="Group 10">
            <path id="Clip_9" data-name="Clip 9" d="M0,0H27.321V23.748H0Z" transform="translate(0 0)" fill="none"/>
            <path id="Fill_8" data-name="Fill 8" d="M14.626.609l3.05,7.385,8.658.359a.926.926,0,0,1,.6,1.673l-6.772,4.923,2.3,7.607A1.012,1.012,0,0,1,20.9,23.59L13.66,19.247,6.424,23.59a1.012,1.012,0,0,1-1.563-1.034l2.3-7.607L.39,10.026a.926.926,0,0,1,.6-1.673l8.657-.359L12.694.609a1.071,1.071,0,0,1,1.932,0" transform="translate(0 0)" fill="#dedede"/>
          </g>
          <path id="Fill_11" data-name="Fill 11" d="M10.553.143,7.1,0,.974,4.452A2.239,2.239,0,0,0,.093,6.921L2.1,13.573,5.116,15.38a1.012,1.012,0,0,0,1.563-1.034l-2.3-7.607L11.15,1.816a.926.926,0,0,0-.6-1.673" transform="translate(15.78 8.21)" fill="#e6e6e6"/>
          <path id="Fill_13" data-name="Fill 13" d="M11.556,3.721H.666A.638.638,0,0,1,0,3.115V.606A.638.638,0,0,1,.666,0h10.89a.638.638,0,0,1,.666.606V3.115a.638.638,0,0,1-.666.606" transform="translate(7.549 32.187)" fill="#fff"/>
        </g>
      </g>
    </g>
    <g id="Group_22_Copy_7" data-name="Group 22 Copy 7" transform="translate(0 22.018)">
      <path id="Rectangle_9" data-name="Rectangle 9" d="M4.5,0H23.716a4.5,4.5,0,0,1,0,9H4.5a4.5,4.5,0,0,1,0-9Z" transform="translate(0 0.5)" fill="#f5f5f5"/>
      <text id="Free" transform="translate(3.027 1.118)" fill="#fff" font-size="6" font-family="NotoSans-Bold, Noto Sans" font-weight="700"><tspan x="4.586" y="6">Free</tspan></text>
    </g>
  </g>
</svg>
