<?xml version="1.0" encoding="utf-8"?>
<!-- Generator: Adobe Illustrator 23.1.0, SVG Export Plug-In . SVG Version: 6.00 Build 0)  -->
<svg version="1.0" id="Capa_1" xmlns="http://www.w3.org/2000/svg" xmlns:xlink="http://www.w3.org/1999/xlink" x="0px" y="0px"
	 viewBox="0 0 512 512" style="enable-background:new 0 0 512 512;" xml:space="preserve">
<style type="text/css">
	.st0{fill:#FFFFFF;}
</style>
<g>
	<path class="st0" d="M380,194c-7.5-15.6-17.6-29.3-30.4-41c-11.2-10.3-23.7-18.5-37.7-24.5c-16.5-7.1-33.7-10.7-51.7-10.9
		c-20.2-0.2-39.5,3.9-57.8,12.5c-16.4,7.7-30.7,18.3-42.9,31.7c-10.5,11.6-18.7,24.6-24.7,39.1c-5.6,13.7-8.8,27.9-9.7,42.7
		c-0.8,12.4,0.2,24.7,2.8,36.8c3.8,17.5,10.9,33.5,21.2,48.1c1,1.4,1,2.6,0.5,4.1c-3.7,10.7-7.3,21.5-10.9,32.2
		c-1.7,5-3.3,9.9-5.1,15.3c1.1-0.3,1.9-0.5,2.6-0.7c5.8-1.9,11.7-3.7,17.5-5.6c9.8-3.1,19.6-6.3,29.4-9.5c1.5-0.5,2.6-0.4,3.9,0.5
		c3.1,2,6.2,3.8,9.5,5.5c13.4,7,27.5,11.7,42.5,14c13.8,2.1,27.6,2.1,41.4-0.2c15.1-2.5,29.4-7.3,42.8-14.7
		c13.5-7.4,25.4-16.8,35.7-28.3c10.4-11.7,18.6-24.8,24.5-39.4c5.2-12.9,8.3-26.2,9.3-40c0.7-9.5,0.4-19.1-0.9-28.6
		C389.8,219.5,385.9,206.4,380,194z M338.7,313.1c-2.1,4.8-6,8-10.2,10.8c-5,3.3-10.3,5.9-16.2,7.2c-8.2,1.8-16.2,1.3-24.1-1.5
		c-11.3-3.9-22.4-8.3-33.1-13.7c-8.9-4.4-16.8-10.3-24.2-16.8c-14.9-13-26.8-28.4-37.4-45.1c-5.5-8.6-10.4-17.5-12.9-27.5
		c-1.1-4.4-1.6-9-2-11.4c0.3-15.5,4.8-27,14.5-36.3c3.1-3,6.3-5.5,10.7-5.8c2-0.1,4,0.1,5.9,0.3c1.2,0.1,2.5,0.4,3.7,0.3
		c4.4-0.5,6.7,2.1,8.1,5.7c1.5,3.5,2.6,7.1,3.9,10.6c2.8,7.4,5.5,14.9,8.4,22.2c1,2.6,0.9,4.8-0.4,7.3c-2.7,5.2-6.8,9.2-10.8,13.4
		c-3.4,3.5-3.6,5.2-1.1,9.5c5.2,9.2,11.2,17.8,18.6,25.5c8.1,8.4,17.3,15.3,27.6,20.6c2.7,1.4,5.4,2.7,8.2,4.1
		c3.5,1.7,5.7,1.4,8.3-1.5c4.4-4.9,8.8-9.8,13-14.8c3-3.7,4.9-4.4,9.3-2.3c5.9,2.8,11.6,5.8,17.4,8.9c5.2,2.7,10.4,5.6,15.5,8.4
		c2.3,1.2,3.2,3,3.1,5.6C342.2,302.5,341,307.9,338.7,313.1z"/>
	<path class="st0" d="M256,0C114.8,0,0,114.8,0,256c0,141.1,114.8,256,256,256c141.1,0,256-114.9,256-256C512,114.8,397.2,0,256,0z
		 M418,276.2c-1.9,12.6-5.3,24.8-10.2,36.6c-5.4,13.2-12.5,25.4-21.2,36.8c-6.9,9-14.7,17.1-23.3,24.5c-7.1,6.1-14.7,11.5-22.8,16.3
		c-12.7,7.5-26.1,13.1-40.3,16.9c-16.7,4.5-33.7,6.1-50.8,5.1c-18.8-1.1-36.9-5.3-54.1-12.9c-4.4-1.9-8.6-4.2-12.9-6.2
		c-0.7-0.3-1.8-0.5-2.6-0.2c-16.5,5.2-33.1,10.5-49.6,15.8c-12.6,4-25.1,8.1-38,12.2c2-6,3.9-11.7,5.8-17.4
		c2.2-6.4,4.3-12.8,6.5-19.2c4.1-12.1,8.2-24.3,12.3-36.4c1.3-3.9,2.7-7.8,3.9-11.8c0.3-0.8,0.2-2-0.3-2.7
		c-9.8-16.5-16.3-34.2-19.8-53c-2-10.9-2.9-21.9-2.6-33c0.6-19.5,4.4-38.3,11.8-56.4c7.2-17.8,17.3-33.7,30.2-47.9
		c11.2-12.3,24.1-22.7,38.5-31c14.8-8.5,30.6-14.5,47.3-18.1c13.6-2.9,27.4-3.8,41.2-3.2c17.4,0.8,34.2,4.5,50.5,10.8
		c16.8,6.6,32.1,15.7,45.7,27.4c14.3,12.3,26.2,26.5,35.5,42.9c6.6,11.6,11.7,23.9,15.3,36.8c2.6,9.6,4.3,19.4,5.2,29.4
		C420.3,251.1,419.9,263.7,418,276.2z"/>
</g>
</svg>
